<svg xmlns="http://www.w3.org/2000/svg" xmlns:xlink="http://www.w3.org/1999/xlink" version="1.1" x="0px" y="0px" viewBox="0 0 96 96" enable-background="new 0 0 96 96" xml:space="preserve"><path d="M96,48.004c0-1.152-0.5-2.172-1.279-2.904l-7.673-9.6c-1.384-1.72-3.899-2.004-5.624-0.62  c-1.724,1.384-2.004,3.9-0.624,5.62l2.8,3.5H59.4c-1.797-6.88-8.024-12-15.477-12h-2.08l-6.8-8.5c-1.38-1.72-3.896-2.004-5.624-0.62  c-1.724,1.384-2.004,3.9-0.624,5.62l2.8,3.5H4c-2.208,0-4,1.792-4,4s1.792,4,4,4h27.596l-2.8,3.5c-1.38,1.728-1.1,4.244,0.624,5.624  C30.16,49.716,31.036,50,31.916,50c1.176,0,2.336-0.512,3.128-1.5l6.8-8.5h2.08c4.432,0,8.036,3.592,8.036,8  c0,4.416-3.604,8-8.036,8h-18.08l-6.8-8.5c-1.38-1.72-3.896-2.008-5.624-0.62c-1.724,1.384-2.004,3.9-0.624,5.62l2.8,3.5H4  c-2.208,0-4,1.792-4,4s1.792,4,4,4h11.596l-2.8,3.5c-1.38,1.729-1.1,4.244,0.624,5.624C14.16,73.716,15.036,74,15.916,74  c1.176,0,2.336-0.512,3.128-1.5l6.8-8.5h18.08C51.376,64,57.6,58.884,59.4,52H83.6l-2.804,3.5c-1.38,1.729-1.096,4.244,0.624,5.624  C82.164,61.712,83.036,62,83.916,62c1.176,0,2.336-0.512,3.128-1.5l7.677-9.592C95.5,50.172,96,49.156,96,48.004z"></path></svg>